<svg width="272" height="190" viewBox="0 0 272 190" fill="none" xmlns="http://www.w3.org/2000/svg">
<path d="M88 35.9998C93.5215 42.7484 93.311 56.2869 93.7778 64.2221C94.768 81.0568 92.8704 98.1893 89.4444 114.667C86.5764 128.46 79.7498 142.082 72 153.778C68.3301 159.316 63.4511 166.627 56 167C53.3154 167.134 51.7162 165.773 49.6667 164.111C40.9433 157.035 33.5591 148.658 27 139.555C12.2662 119.109 -3.62307 91.3974 4.44443 65.3332C10.8537 44.6263 27.6415 31.8403 46.2222 22.2221C65.9936 11.9875 86.7886 3.35795 109.222 2.22206C122.286 1.56062 132.272 12.6553 139.889 22.111C152.72 38.039 157.451 60.5608 152.556 80.3332C146.325 105.499 130.331 131.541 104.444 139.778C87.6425 145.124 69.5124 142.34 52.2222 145.222C46.9242 146.105 37.8409 149.028 35 154C32.0729 159.122 33.1647 163.862 34 169.5C34.7711 174.705 36.4745 180.13 39.5 184.5C43.7127 190.585 47.7502 186.687 52.9444 182.555C79.2919 161.597 98.0327 137.136 113.5 107.333C122.753 89.5046 130.746 71.0228 139.944 53.1665C143.418 46.424 147.051 36.6703 154.611 33.4998C158.504 31.8675 165.221 28.111 169.556 28.111C175.166 28.111 179.324 39.0372 180.444 43.111C187.028 67.053 167.093 88.3651 145.944 96.0554C136.357 99.5416 124.304 104.097 117.167 111.444C109.301 119.541 104.745 128.484 101.611 139.278C97.1692 154.578 111.24 164 124.778 164C142.92 164 170.861 143.743 152.667 126.222C146.971 120.738 134.263 154.971 137.222 162C142.045 173.454 157.207 154.956 161.778 150.222C164.5 147.402 174.366 138.917 171.778 134C166.25 123.497 164.863 151.702 165 155.667C165.316 164.834 177.91 147.905 179.556 145.889C185.265 138.893 189.284 134.575 190.778 125.444C192.643 114.046 190 101.734 190 90.2221C190 89.6583 189.598 83.5799 188 85.4443C180.657 94.0116 180.462 110.766 179 121C177.912 128.614 175.179 138.195 178 145.778C178.804 147.939 179.555 153.166 182.056 154C194.401 158.115 207.71 161.344 214.389 146.444C216.75 141.176 219.207 122.397 208.611 130.5C201.013 136.311 200.849 153.849 207.5 160.5C211.035 164.035 212.039 162.398 216.5 158.944C226.17 151.458 233.27 139.628 237.889 128.5C243.121 115.896 245.919 102.206 249.389 89.0554C253.138 74.8496 252.706 60.9655 259.056 47.3332C263.643 37.4841 267.589 27.101 269.944 16.4998C270.216 15.2783 269.412 14.2646 268.5 13.5554C266.002 11.6121 263.435 18.4445 262.944 19.5554C253.185 41.6771 250.823 67.6405 245.056 90.9998C242.353 101.944 242 111.617 242 122.833C242 131.001 246.416 142.056 249.944 149.333C252.067 153.711 253.984 161.322 258 164" stroke="black" strokeWidth="3" strokeLinecap="round"/>
</svg>
